HIERARCHY
ROOT ui
{
	 OFFSET 0 0 0
	 CHANNELS 3 XPosition YPosition Z Position
	 EndSite
	 {
	 OFFSET 0 -1 0
	 }
}
ROOT li
{
	 OFFSET 0 0 0
	 CHANNELS 3 XPosition YPosition Z Position
	 EndSite
	 {
	 OFFSET 0 -1 0
	 }
}
ROOT ul
{
	 OFFSET 0 0 0
	 CHANNELS 3 XPosition YPosition Z Position
	 EndSite
	 {
	 OFFSET 0 -1 0
	 }
}
ROOT ll
{
	 OFFSET 0 0 0
	 CHANNELS 3 XPosition YPosition Z Position
	 EndSite
	 {
	 OFFSET 0 -1 0
	 }
}
ROOT tt
{
	 OFFSET 0 0 0
	 CHANNELS 3 XPosition YPosition Z Position
	 EndSite
	 {
	 OFFSET 0 -1 0
	 }
}
ROOT tb
{
	 OFFSET 0 0 0
	 CHANNELS 3 XPosition YPosition Z Position
	 EndSite
	 {
	 OFFSET 0 -1 0
	 }
}
ROOT td
{
	 OFFSET 0 0 0
	 CHANNELS 3 XPosition YPosition Z Position
	 EndSite
	 {
	 OFFSET 0 -1 0
	 }
}
ROOT v
{
	 OFFSET 0 0 0
	 CHANNELS 3 XPosition YPosition Z Position
	 EndSite
	 {
	 OFFSET 0 -1 0
	 }
}
ROOT bn
{
	 OFFSET 0 0 0
	 CHANNELS 3 XPosition YPosition Z Position
	 EndSite
	 {
	 OFFSET 0 -1 0
	 }
}
MOTION
Frames: 21
Frame Time: 0.002
-0.0028994340896606446	-0.002284518003463745	0		0.4073865966796875	-2.4285595703125	0		-1.1084012451171874	0.07462886810302734	0		-0.81845458984375	-2.6209013671875	0		1.335631103515625	-0.7638435668945313	0		3.038008544921875	-0.08452909851074218	0		4.5537626953125	0.058009071350097655	0		5.5549619140625	0.21087522888183594	0		-0.2691737060546875	5.96658935546875	0		
-0.024644834518432617	-0.009597753524780274	0		0.38285848999023436	-2.4248125	0		-1.111056884765625	0.07088804626464844	0		-0.7841896362304688	-2.62651416015625	0		1.3928743896484375	-0.772031494140625	0		3.02547021484375	-0.0831075668334961	0		4.55038818359375	0.06619190216064454	0		5.555984375	0.2109658660888672	0		-0.28189016723632815	5.9560703125	0		
0.0017440420389175414	-0.01006210422515869	0		0.3939978637695313	-2.4339296875	0		-1.1805228271484376	0.07769322204589844	0		-0.8388480224609375	-2.62606494140625	0		1.3442705078125	-0.7707615966796875	0		3.026864501953125	-0.08303922271728516	0		4.54662255859375	0.059352603912353516	0		5.55692822265625	0.20582135009765626	0		-0.2651824035644531	5.9648427734375	0		
-0.011672846794128418	3.859289884567261E-4	0		0.4102476806640625	-2.436189453125	0		-1.09605908203125	0.08186306762695313	0		-0.7635709838867187	-2.627688232421875	0		1.3676419677734375	-0.7692039184570313	0		3.04920166015625	-0.08348760223388672	0		4.555224609375	0.07020264434814454	0		5.5642861328125	0.2037281036376953	0		-0.2485006866455078	5.97459130859375	0		
0.013580306053161621	-0.0010990819931030273	0		0.40170159912109377	-2.42688623046875	0		-1.0947742919921875	0.0819609603881836	0		-0.8080401000976563	-2.61451904296875	0		1.3499637451171875	-0.7667042846679688	0		3.03260595703125	-0.07804231262207031	0		4.55855517578125	0.07215200805664063	0		5.55468798828125	0.2233287353515625	0		-0.24906312561035157	5.976720703125	0		
-0.024819149017333984	0.015897583961486817	0		0.39203982543945315	-2.41957568359375	0		-1.101721923828125	0.075231201171875	0		-0.7760458984375	-2.622170654296875	0		1.3680413818359376	-0.7720653686523438	0		3.03381787109375	-0.07803476715087891	0		4.5604404296875	0.058113048553466794	0		5.559712890625	0.2109171905517578	0		-0.26197573852539063	5.96711767578125	0		
-0.018272716522216795	-0.009190177917480469	0		0.39880325317382814	-2.433673583984375	0		-1.1005845947265624	0.07529615783691407	0		-0.81092138671875	-2.6202646484375	0		1.3433594970703124	-0.7634332885742188	0		3.036646240234375	-0.09108423614501954	0		4.55160400390625	0.05931582260131836	0		5.553390625	0.2112415771484375	0		-0.26073733520507814	5.96716845703125	0		
-0.01005590534210205	-0.002323843955993652	0		0.4018636474609375	-2.431695068359375	0		-1.099529296875	0.07534712982177734	0		-0.7642058715820312	-2.633298095703125	0		1.3502344970703124	-0.7705620727539062	0		3.032888427734375	-0.08298616790771485	0		4.5526591796875	0.05927334213256836	0		5.56122119140625	0.20554632568359374	0		-0.24437686157226562	5.975849609375	0		
0.013074063301086425	0.004177165031433105	0		0.379991455078125	-2.423140625	0		-1.1653262939453124	0.08596144104003907	0		-0.8269756469726562	-2.619760498046875	0		1.3542869873046874	-0.766634033203125	0		3.036975341796875	-0.07808485412597656	0		4.55774755859375	0.064127197265625	0		5.5578017578125	0.22297373962402345	0		-0.24428782653808595	5.97689794921875	0		
0.018843511581420898	-9.282199740409851E-4	0		0.40676629638671874	-2.4267470703125	0		-1.093573974609375	0.07931764221191406	0		-0.769094482421875	-2.619081298828125	0		1.355164306640625	-0.7666427612304687	0		3.0426728515625	-0.08623414611816406	0		4.564494140625	0.05793126678466797	0		5.562595703125	0.21050209045410156	0		-0.2423345947265625	5.9758896484375	0		
-0.007391109943389893	-0.0022876989841461182	0		0.39463580322265623	-2.42244384765625	0		-1.096861083984375	0.07543157196044922	0		-0.7713955078125	-2.621995849609375	0		1.3670029296875	-0.7649180908203125	0		3.047593505859375	-0.0813685302734375	0		4.55532666015625	0.059107208251953126	0		5.5654248046875	0.22236146545410157	0		-0.2566551513671875	5.96725244140625	0		
-0.025407386779785157	0.009154923439025879	0		0.419198974609375	-2.4280166015625	0		-1.0961412353515625	0.07544280242919922	0		-0.7727568359375	-2.62394091796875	0		1.344671142578125	-0.7663950805664063	0		3.036267578125	-0.0831265869140625	0		4.56601953125	0.05781037521362305	0		5.5636796875	0.2102512664794922	0		-0.2568360290527344	5.9682763671875	0		
-0.009134812355041504	-0.006225902080535889	0		0.38957379150390625	-2.43731787109375	0		-1.1704647216796875	0.07821878051757812	0		-0.7942921142578125	-2.629418212890625	0		1.3541962890625	-0.7706297607421875	0		3.036897705078125	-0.0831697998046875	0		4.560794921875	0.06388917541503907	0		5.56407861328125	0.2049384002685547	0		-0.2399503173828125	5.97589208984375	0		
-0.0024262380599975584	6.194369792938232E-4	0		0.41913189697265624	-2.436018798828125	0		-1.08680029296875	0.08225785827636718	0		-0.787587890625	-2.621564697265625	0		1.35989697265625	-0.763775390625	0		3.058435791015625	-0.08370934295654296	0		4.56134033203125	0.06382944488525391	0		5.57086572265625	0.202720947265625	0		-0.23836550903320314	5.97485986328125	0		
-0.006843430995941162	0.005722667217254639	0		0.40000277709960935	-2.417568603515625	0		-1.0863363037109375	0.08225469207763672	0		-0.766084716796875	-2.61906787109375	0		1.417171630859375	-0.77214697265625	0		3.044138671875	-0.0734004669189453	0		4.5669921875	0.07165186309814453	0		5.56068505859375	0.22224472045898438	0		-0.23979728698730468	5.9768955078125	0		
0.01932387351989746	-0.0039044981002807617	0		0.4579041137695313	-2.437953125	0		-1.094111572265625	0.07543994140625	0		-0.7580056762695313	-2.63126220703125	0		1.34973681640625	-0.7635685424804688	0		3.038290771484375	-0.08329683685302734	0		4.5632392578125	0.06569412231445312	0		5.56512158203125	0.2097860565185547	0		-0.23838302612304688	5.97585888671875	0		
-0.0012588529586791992	5.749530196189881E-4	0		0.39550387573242185	-2.42448583984375	0		-1.093794189453125	0.07543234252929687	0		-0.7705396118164063	-2.623967041015625	0		1.4126990966796875	-0.77908056640625	0		3.04653369140625	-0.08652410125732422	0		4.558392578125	0.05876384735107422	0		5.55821533203125	0.21009591674804687	0		-0.2674857482910156	5.9565361328125	0		
0.008870559692382813	-0.004676144123077392	0		0.4055223083496094	-2.433738525390625	0		-1.093543212890625	0.07542376708984375	0		-0.8253150634765625	-2.623676513671875	0		1.3561258544921875	-0.7707597045898438	0		3.03885693359375	-0.0833722152709961	0		4.55864306640625	0.05871712875366211	0		5.5613642578125	0.22194741821289063	0		-0.23773008728027345	5.97583056640625	0		
-8.216710090637207E-4	5.441319942474365E-4	0		0.3947211608886719	-2.432495849609375	0		-1.085192626953125	0.08222418975830079	0		-0.7532116088867188	-2.627389404296875	0		1.37834912109375	-0.7693038330078125	0		3.042160400390625	-0.0784776840209961	0		4.562947265625	0.06357889556884766	0		5.5656064453125	0.20432426452636718	0		-0.23750759887695314	5.9758173828125	0		
0.0183918514251709	0.004081057071685791	0		0.40118572998046875	-2.417656494140625	0		-1.089137939453125	0.07931314849853516	0		-0.8327239379882813	-2.610508544921875	0		1.3595218505859374	-0.7668743286132812	0		3.047093505859375	-0.08662221527099609	0		4.55895458984375	0.05863846206665039	0		5.55861474609375	0.20985072326660156	0		-0.2373517303466797	5.97580615234375	0		
-0.005516325950622559	0.005640460014343262	0		0.39811819458007813	-2.42259423828125	0		-1.093169677734375	0.07540576934814452	0		-0.7679298095703125	-2.622048828125	0		1.3706239013671875	-0.7651500244140625	0		3.045462890625	-0.07360124206542969	0		4.55420703125	0.06672470092773437	0		5.5657880859375	0.20938214111328124	0		-0.2524709167480469	5.96715673828125	0		
